<svg xmlns="http://www.w3.org/2000/svg" fill="none" viewBox="0 0 256 256">
  <path d="M128 256c70.692 0 128-57.308 128-128C256 57.308 198.692 0 128 0 57.308 0 0 57.307 0 128c0 70.692 57.307 128 128 128z" fill="#fff"/>
  <path d="M172 150c-17.556 0-32.315 12.472-37 29-.989 3.489-1.669 4.684-3 7-1.716 2.986-5.199 7.299-10 10-3.906 2.198-7.273 4.067-12.303 3.31-1.309-.198-3.63-.562-5.951-1.898-3.7-2.13-4.92-4-7.75-9.41.404 5.774-.34 7.88 2.5 18 5.654 20.144 27.381 36 53 36 18.991 0 36.592-7.915 46.496-19.998 3.622-4.419 6.35-7.906 9-14 2.411-5.545 3.002-12.653 3.004-19.002.006-21.556-17.013-39-38-39L172 150z" fill="#fff"/>
  <path d="M172 150c-17.556 0-32.315 12.472-37 29-.989 3.489-1.669 4.684-3 7-1.716 2.986-5.199 7.299-10 10-3.906 2.198-7.273 4.067-12.303 3.31-1.309-.198-3.63-.562-5.951-1.898-3.7-2.13-4.92-4-7.75-9.41.404 5.774-.34 7.88 2.5 18 5.654 20.144 27.381 36 53 36 18.991 0 36.592-7.915 46.496-19.998 3.622-4.419 6.35-7.906 9-14 2.411-5.545 3.002-12.653 3.004-19.002.006-21.556-17.013-39-38-39L172 150zm-72.551-4.115c6.004-16.497-.668-34.63-14.596-44.685-2.94-2.123-3.831-3.171-5.552-5.213-2.22-2.634-5.08-7.382-5.977-12.818-.729-4.422-1.335-8.225 1.098-12.693.633-1.163 1.77-3.218 3.819-4.943 2.15-1.81 2.303-6.856-.48-7.26-1.595-.23-3.483-.436-5.797-.611-20.863-1.577-43.194 13.417-51.956 37.49-6.495 17.847-5.077 37.093 2.89 50.533 2.913 4.915 5.257 8.67 10.077 13.245 4.386 4.162 10.863 7.149 16.829 9.322 20.253 7.378 42.465-2.647 49.644-22.367 0-.001 0-.001 0 0zm29.209-64.402h-.001c7.697 15.778 25.376 23.576 42.284 20.541 3.569-.64 4.942-.553 7.607-.372 3.436.233 8.839 1.473 13.371 4.604 3.688 2.548 6.844 4.754 8.368 9.607.397 1.264 1.086 3.509.904 6.181-.193 2.804 3.332 6.42 5.554 4.698 1.275-.987 2.734-2.202 4.468-3.745 15.626-13.913 20.353-40.391 9.123-63.418-8.326-17.069-23.155-29.419-38.357-33.023-5.56-1.319-9.889-2.242-16.528-1.952-6.041.263-12.689 2.848-18.396 5.63-19.377 9.444-27.595 32.386-18.396 51.248l-.001.001z" fill="#474D60"/>
</svg>
