<svg xmlns="http://www.w3.org/2000/svg" fill="none" viewBox="0 0 24 24">
  <g clip-path="url(#LkYqqkqtw6a)">
    <path d="M0 7.5a7.503 7.503 0 006.04 7.357 9.69 9.69 0 01.816-3.109c-1.313-.444-2.158-1.452-2.356-2.883h-.75v-.639h.699v-.651c0-.069 0-.14.006-.203H3.75v-.64h.766C4.854 4.86 6.32 3.75 8.521 3.75c.474 0 .885.046 1.229.127v1.1a5.19 5.19 0 00-1.223-.123c-1.378 0-2.306.699-2.6 1.878h2.875v.64h-2.97c-.005.07-.005.146-.005.221v.633h2.975v.64H5.895c.177.904.702 1.546 1.508 1.844a9.75 9.75 0 017.455-4.67A7.503 7.503 0 000 7.5zm24 8.25a8.25 8.25 0 11-16.5 0 8.25 8.25 0 0116.5 0zm-11.625 1.983c.104 1.252 1.119 2.227 2.946 2.343V21h.81v-.93c1.889-.129 2.994-1.11 2.994-2.535 0-1.297-.845-1.965-2.355-2.31l-.639-.15v-2.514c.81.09 1.326.52 1.449 1.117h1.422c-.105-1.206-1.168-2.149-2.871-2.253V10.5h-.81v.944c-1.614.154-2.712 1.097-2.712 2.432 0 1.181.816 1.933 2.175 2.24l.537.128v2.67c-.831-.12-1.38-.565-1.505-1.181h-1.441zm2.94-2.843c-.798-.18-1.23-.546-1.23-1.098 0-.614.466-1.078 1.236-1.213v2.31h-.008l.002.002zm.933 1.566c.967.218 1.415.57 1.415 1.195 0 .71-.555 1.2-1.53 1.29V16.43l.115.026z" fill="#1DA1F2"/>
  </g>
  <defs>
    <clipPath id="LkYqqkqtw6a">
      <path fill="#fff" d="M0 0h24v24H0z"/>
    </clipPath>
  </defs>
</svg>
