<svg xmlns="http://www.w3.org/2000/svg" fill="none" viewBox="0 0 172 42">
  <path d="M52.525 8.97a2.795 2.795 0 011.955.742c.533.476.827 1.128.814 1.805.013.669-.278 1.314-.805 1.784-.5.477-1.2.745-1.928.739a2.804 2.804 0 01-1.968-.751c-.535-.483-.829-1.142-.814-1.825 0-1.372 1.23-2.486 2.75-2.49l-.004-.004zm-2.165 8.497h4.33v16.292h-4.33V17.467zm18.83 2.58l-2.683 2.421c-1.091-.985-2.084-1.477-2.979-1.477a2.02 2.02 0 00-1.14.278.821.821 0 00-.412.695.81.81 0 00.26.581c.385.305.821.553 1.292.735l1.588.714c1.67.746 2.818 1.505 3.444 2.277 1.494 1.942 1.174 4.581-.751 6.184-1.127.926-2.638 1.389-4.531 1.389-2.367.059-4.616-.936-6.012-2.66l2.684-2.62a6.103 6.103 0 001.79 1.296 4.267 4.267 0 001.788.496c.494.022.982-.109 1.382-.371.318-.195.512-.514.524-.86 0-.603-.63-1.19-1.888-1.76l-1.458-.658c-2.791-1.27-4.187-2.86-4.187-4.768-.01-1.21.567-2.363 1.58-3.156 1.103-.89 2.546-1.36 4.025-1.312 2.24-.011 4.352.946 5.68 2.575h.005zm20.174.972l-3.606 1.788a6.133 6.133 0 00-2.008-1.332 6.627 6.627 0 00-2.326-.371c-1.452-.057-2.868.414-3.931 1.308-1.005.874-1.552 2.092-1.503 3.35-.044 1.212.48 2.385 1.444 3.23 1.024.87 2.392 1.333 3.798 1.283 1.938 0 3.447-.596 4.526-1.788l3.418 2.111c-1.852 2.172-4.464 3.258-7.837 3.258-3.035 0-5.412-.808-7.13-2.422-2.005-1.82-2.936-4.388-2.508-6.927.428-2.54 2.164-4.74 4.679-5.938a11.367 11.367 0 015.04-1.102c1.598-.023 3.18.293 4.617.924a8.567 8.567 0 013.328 2.628h-.001zm10.667-3.552a9.927 9.927 0 014.594 1.102c2.83 1.435 4.576 4.142 4.562 7.072a7.57 7.57 0 01-1.212 4.122c-.776 1.252-1.916 2.29-3.296 3.003a9.918 9.918 0 01-4.616 1.082c-2.388.032-4.683-.832-6.338-2.386-1.72-1.523-2.67-3.618-2.626-5.793-.022-4.488 3.973-8.15 8.946-8.202h-.014zm.072 3.681c-1.268-.026-2.49.435-3.36 1.268-.904.873-1.387 2.035-1.341 3.23-.055 1.215.427 2.4 1.342 3.293.868.834 2.091 1.293 3.359 1.26 1.279.03 2.511-.434 3.386-1.276.913-.888 1.396-2.068 1.342-3.278.052-1.204-.431-2.377-1.342-3.258-.882-.829-2.113-1.28-3.386-1.239zm11.732-3.277h4.379v7.5a9.466 9.466 0 00.331 3.043c.194.533.57.996 1.074 1.324a3.311 3.311 0 001.82.473 3.435 3.435 0 001.839-.464 2.77 2.77 0 001.122-1.369c.179-.45.269-1.409.269-2.878v-7.63h4.329v6.6c0 2.721-.238 4.582-.715 5.583-.517 1.158-1.415 2.144-2.572 2.826a8.553 8.553 0 01-4.317.98c-1.893 0-3.424-.381-4.593-1.146-1.189-.79-2.055-1.913-2.465-3.193-.334-.952-.501-2.675-.501-5.167V17.87zm18.03 0h3.713v1.961a4.315 4.315 0 011.601-1.76 4.175 4.175 0 012.187-.601 4.38 4.38 0 011.763.404l-1.342 3.366a3.218 3.218 0 00-1.252-.343c-.668 0-1.232.373-1.691 1.118-.46.746-.689 2.205-.689 4.38v7.052h-4.298l.008-15.578zm21.524 2.175l-2.684 2.422c-1.088-.985-2.077-1.477-2.965-1.477a2.02 2.02 0 00-1.141.278.822.822 0 00-.411.695.808.808 0 00.259.581c.387.3.823.544 1.293.722l1.588.715c1.669.746 2.818 1.505 3.444 2.277 1.491 1.942 1.171 4.581-.752 6.184-1.127.926-2.637 1.389-4.531 1.389-2.374.063-4.629-.934-6.029-2.665l2.684-2.62c.501.53 1.107.97 1.789 1.296a4.274 4.274 0 001.816.493c.494.022.981-.109 1.382-.372.297-.197.477-.507.487-.84 0-.602-.629-1.189-1.887-1.76l-1.458-.657c-2.791-1.27-4.187-2.86-4.187-4.768-.01-1.21.566-2.363 1.579-3.156 1.104-.89 2.546-1.36 4.026-1.312 2.24-.011 4.352.946 5.68 2.575h.018zm20.571 6.742h-13.911c.154 1.03.728 1.971 1.61 2.64a5.43 5.43 0 003.342.98c1.563.022 3.069-.53 4.173-1.53l3.65 1.547a8.414 8.414 0 01-3.27 2.583 11.174 11.174 0 01-4.522.836c-2.708 0-4.911-.771-6.616-2.313-1.689-1.532-2.607-3.624-2.536-5.785-.076-2.204.843-4.34 2.545-5.922 1.669-1.559 3.987-2.413 6.388-2.353 2.716 0 4.929.784 6.633 2.353 1.704 1.57 2.557 3.643 2.554 6.22l-.04.744zm-4.33-3.08c-.275-.857-.865-1.603-1.673-2.116a5.301 5.301 0 00-2.93-.807 5.575 5.575 0 00-3.18.916 5.147 5.147 0 00-1.588 2.019l9.371-.012zM23.2 0C10.606 0 0 9.216 0 20.587v21.318l23.196-.02c12.596 0 22.812-9.571 22.812-20.939C46.008 9.58 35.783 0 23.201 0z" fill="#000"/>
  <path d="M23.438 7.968c-4.983.003-9.594 2.371-12.144 6.233-2.55 3.862-2.657 8.65-.286 12.607l-2.559 7.427 9.188-1.873c5.26 2.14 11.432 1.178 15.597-2.427 4.163-3.606 5.479-9.135 3.328-13.967-2.152-4.832-7.34-8-13.11-8h-.014z" fill="#FFF9AE"/>
  <path d="M34.495 28.624c-4.016 4.574-10.958 6.104-16.858 3.716L8.45 34.238l9.352-.997c6.2 3.277 14.14 1.835 18.451-3.352 4.312-5.188 3.625-12.47-1.597-16.926 3.92 4.638 3.854 11.089-.163 15.658l.002.003z" fill="#00AEEF"/>
  <path d="M33.703 26.202c-3.465 4.925-10.189 7.1-16.335 5.284L8.45 34.24l9.187-1.877c6.544 2.668 14.264.484 17.95-5.078 3.685-5.563 2.166-12.732-3.533-16.671 4.436 4.242 5.117 10.664 1.65 15.59z" fill="#00A94F"/>
  <path d="M11.854 27.09c-2.561-5.57-.451-11.997 5.058-15.412 5.51-3.412 12.914-2.878 17.753 1.282-4.482-5.308-12.734-6.604-18.938-2.972-6.204 3.63-8.261 10.96-4.719 16.817L8.45 34.232l3.404-7.142z" fill="#F15D22"/>
  <path d="M11.008 26.808c-3.177-5.296-1.818-11.876 3.26-15.784 5.077-3.908 12.493-4.08 17.784-.41-5.077-4.825-13.41-5.321-19.144-1.135-5.734 4.186-6.942 11.642-2.774 17.132l-1.682 7.63 2.556-7.433z" fill="#D0232B"/>
</svg>
